<svg id="Ebene_1" data-name="Ebene 1" xmlns="http://www.w3.org/2000/svg" viewBox="0 0 179.06 33.15"><path d="M21.21,32.93l-7.1-10a21.86,21.86,0,0,1-2.48.13H3.28v9.86H0V1.86H11.63c7.9,0,12.69,4,12.69,10.65a9.65,9.65,0,0,1-7.1,9.77l7.59,10.65ZM21,12.51c0-5-3.28-7.81-9.49-7.81H3.28V20.28h8.26C17.75,20.28,21,17.39,21,12.51Z"/><path d="M29.08,21.26A11.48,11.48,0,0,1,41,9.41,11.44,11.44,0,0,1,52.82,21.26,11.48,11.48,0,0,1,41,33.15,11.52,11.52,0,0,1,29.08,21.26Zm20.55,0c0-5.46-3.68-9.1-8.65-9.1s-8.7,3.64-8.7,9.1S36,30.35,41,30.35,49.63,26.71,49.63,21.26Z"/><path d="M82.93,21.26c0,7-5,11.89-11.63,11.89a10.12,10.12,0,0,1-9-4.84v4.62h-3V0h3.16V14A10.17,10.17,0,0,1,71.3,9.41C78,9.41,82.93,14.2,82.93,21.26Zm-3.15,0c0-5.46-3.78-9.1-8.7-9.1s-8.7,3.64-8.7,9.1,3.73,9.09,8.7,9.09S79.78,26.71,79.78,21.26Z"/><path d="M141.82,30.26l1.42-2.48a14.1,14.1,0,0,0,8.29,2.62c4.44,0,6.26-1.51,6.26-3.82,0-6.08-15.13-1.29-15.13-10.52,0-3.81,3.28-6.65,9.23-6.65a15.8,15.8,0,0,1,8.25,2.17l-1.37,2.53a12,12,0,0,0-6.88-2c-4.22,0-6.08,1.65-6.08,3.86,0,6.31,15.13,1.56,15.13,10.52,0,4-3.55,6.66-9.63,6.66C147.45,33.15,143.72,31.91,141.82,30.26Z"/><path d="M179.06,31.51a7.5,7.5,0,0,1-4.93,1.64c-4.39,0-6.83-2.49-6.83-6.79V12.25h-4.17V9.58h4.17V4.48h3.15v5.1h7.1v2.67h-7.1V26.18c0,2.75,1.42,4.26,4,4.26a5.2,5.2,0,0,0,3.46-1.2Z"/><path d="M126.32,33.05c-6.87,0-10.74-4.58-13.95-9.21-3.21,4.63-7.08,9.21-14,9.21a11.83,11.83,0,0,1,0-23.65c6.87,0,10.74,4.58,14,9.21,3.21-4.63,7.08-9.21,13.95-9.21a11.83,11.83,0,0,1,0,23.65ZM114.15,21.23c3.16,4.67,6.32,8.88,12.17,8.88a8.89,8.89,0,0,0,0-17.77C120.47,12.34,117.31,16.55,114.15,21.23ZM98.42,12.34a8.89,8.89,0,0,0,0,17.77c5.85,0,9-4.21,12.18-8.88C107.43,16.55,104.27,12.34,98.42,12.34Z"/></svg>