<?xml version="1.0" encoding="us-ascii" standalone="no"?><svg xmlns="http://www.w3.org/2000/svg" xmlns:xlink="http://www.w3.org/1999/xlink" contentStyleType="text/css" height="640px" preserveAspectRatio="none" style="width:451px;height:640px;background:#FFFFFF;" version="1.1" viewBox="0 0 451 640" width="451px" zoomAndPan="magnify"><defs/><g><!--class MotorController--><g id="elem_MotorController"><rect codeLine="2" fill="#F1F1F1" height="64.2969" id="MotorController" rx="2.5" ry="2.5" style="stroke:#181818;stroke-width:0.5;" width="161" x="26" y="445.08"/><ellipse cx="50.9" cy="461.08" fill="#A9DCDF" rx="11" ry="11" style="stroke:#181818;stroke-width:1.0;"/><path d="M51.0094,456.4237 L49.8531,461.5019 L52.1813,461.5019 L51.0094,456.4237 Z M49.525,454.1894 L52.5094,454.1894 L55.8688,466.58 L53.4156,466.58 L52.65,463.5175 L49.3688,463.5175 L48.6188,466.58 L46.1813,466.58 L49.525,454.1894 Z " fill="#000000"/><text fill="#000000" font-family="sans-serif" font-size="14" font-style="italic" lengthAdjust="spacing" textLength="107" x="67.1" y="465.9267">MotorController</text><line style="stroke:#181818;stroke-width:0.5;" x1="27" x2="186" y1="477.08" y2="477.08"/><line style="stroke:#181818;stroke-width:0.5;" x1="27" x2="186" y1="485.08" y2="485.08"/><ellipse cx="37" cy="498.7284" fill="#84BE84" rx="3" ry="3" style="stroke:#038048;stroke-width:1.0;"/><text fill="#000000" font-family="sans-serif" font-size="14" lengthAdjust="spacing" textLength="135" x="46" y="502.0751">set_motor_control()</text></g><!--class SimpleMotorController--><g id="elem_SimpleMotorController"><rect codeLine="6" fill="#F1F1F1" height="64.2969" id="SimpleMotorController" rx="2.5" ry="2.5" style="stroke:#181818;stroke-width:0.5;" width="185" x="14" y="569.37"/><ellipse cx="29" cy="585.37" fill="#ADD1B2" rx="11" ry="11" style="stroke:#181818;stroke-width:1.0;"/><path d="M31.9688,591.0106 Q31.3906,591.3075 30.75,591.4481 Q30.1094,591.6044 29.4063,591.6044 Q26.9063,591.6044 25.5781,589.9638 Q24.2656,588.3075 24.2656,585.1825 Q24.2656,582.0575 25.5781,580.4013 Q26.9063,578.745 29.4063,578.745 Q30.1094,578.745 30.75,578.9013 Q31.4063,579.0575 31.9688,579.3544 L31.9688,582.0731 Q31.3438,581.495 30.75,581.2294 Q30.1563,580.9481 29.5313,580.9481 Q28.1875,580.9481 27.5,582.0263 Q26.8125,583.0888 26.8125,585.1825 Q26.8125,587.2763 27.5,588.3544 Q28.1875,589.4169 29.5313,589.4169 Q30.1563,589.4169 30.75,589.1513 Q31.3438,588.87 31.9688,588.2919 L31.9688,591.0106 Z " fill="#000000"/><text fill="#000000" font-family="sans-serif" font-size="14" lengthAdjust="spacing" textLength="153" x="43" y="590.2167">SimpleMotorController</text><line style="stroke:#181818;stroke-width:0.5;" x1="15" x2="198" y1="601.37" y2="601.37"/><rect fill="none" height="6" style="stroke:#C82930;stroke-width:1.0;" width="6" x="22" y="612.0184"/><text fill="#000000" font-family="sans-serif" font-size="14" lengthAdjust="spacing" textLength="86" x="34" y="618.3651">max_velocity</text><line style="stroke:#181818;stroke-width:0.5;" x1="15" x2="198" y1="625.6669" y2="625.6669"/></g><!--class MotorControllerManager--><g id="elem_MotorControllerManager"><rect codeLine="10" fill="#F1F1F1" height="80.5938" id="MotorControllerManager" rx="2.5" ry="2.5" style="stroke:#181818;stroke-width:0.5;" width="199" x="7" y="304.48"/><ellipse cx="22" cy="320.48" fill="#ADD1B2" rx="11" ry="11" style="stroke:#181818;stroke-width:1.0;"/><path d="M24.9688,326.1206 Q24.3906,326.4175 23.75,326.5581 Q23.1094,326.7144 22.4063,326.7144 Q19.9063,326.7144 18.5781,325.0737 Q17.2656,323.4175 17.2656,320.2925 Q17.2656,317.1675 18.5781,315.5112 Q19.9063,313.855 22.4063,313.855 Q23.1094,313.855 23.75,314.0112 Q24.4063,314.1675 24.9688,314.4644 L24.9688,317.1831 Q24.3438,316.605 23.75,316.3394 Q23.1563,316.0581 22.5313,316.0581 Q21.1875,316.0581 20.5,317.1362 Q19.8125,318.1987 19.8125,320.2925 Q19.8125,322.3862 20.5,323.4644 Q21.1875,324.5269 22.5313,324.5269 Q23.1563,324.5269 23.75,324.2612 Q24.3438,323.98 24.9688,323.4019 L24.9688,326.1206 Z " fill="#000000"/><text fill="#000000" font-family="sans-serif" font-size="14" lengthAdjust="spacing" textLength="167" x="36" y="325.3267">MotorControllerManager</text><line style="stroke:#181818;stroke-width:0.5;" x1="8" x2="205" y1="336.48" y2="336.48"/><rect fill="none" height="6" style="stroke:#C82930;stroke-width:1.0;" width="6" x="15" y="347.1284"/><text fill="#000000" font-family="sans-serif" font-size="14" lengthAdjust="spacing" textLength="117" x="27" y="353.4751">MotorController[]</text><line style="stroke:#181818;stroke-width:0.5;" x1="8" x2="205" y1="360.7769" y2="360.7769"/><ellipse cx="18" cy="374.4253" fill="#84BE84" rx="3" ry="3" style="stroke:#038048;stroke-width:1.0;"/><text fill="#000000" font-family="sans-serif" font-size="14" lengthAdjust="spacing" textLength="135" x="27" y="377.772">control_all_motors()</text></g><!--class KinematicsModel--><g id="elem_KinematicsModel"><rect codeLine="15" fill="#F1F1F1" height="64.2969" id="KinematicsModel" rx="2.5" ry="2.5" style="stroke:#181818;stroke-width:0.5;" width="204" x="240.5" y="312.63"/><ellipse cx="280.25" cy="328.63" fill="#A9DCDF" rx="11" ry="11" style="stroke:#181818;stroke-width:1.0;"/><path d="M280.3594,323.9737 L279.2031,329.0519 L281.5313,329.0519 L280.3594,323.9737 Z M278.875,321.7394 L281.8594,321.7394 L285.2188,334.13 L282.7656,334.13 L282,331.0675 L278.7188,331.0675 L277.9688,334.13 L275.5313,334.13 L278.875,321.7394 Z " fill="#000000"/><text fill="#000000" font-family="sans-serif" font-size="14" font-style="italic" lengthAdjust="spacing" textLength="117" x="299.75" y="333.4767">KinematicsModel</text><line style="stroke:#181818;stroke-width:0.5;" x1="241.5" x2="443.5" y1="344.63" y2="344.63"/><line style="stroke:#181818;stroke-width:0.5;" x1="241.5" x2="443.5" y1="352.63" y2="352.63"/><ellipse cx="251.5" cy="366.2784" fill="#84BE84" rx="3" ry="3" style="stroke:#038048;stroke-width:1.0;"/><text fill="#000000" font-family="sans-serif" font-size="14" lengthAdjust="spacing" textLength="178" x="260.5" y="369.6251">calculate_wheel_speeds()</text></g><!--class RobotController--><g id="elem_RobotController"><rect codeLine="19" fill="#F1F1F1" height="113.1875" id="RobotController" rx="2.5" ry="2.5" style="stroke:#181818;stroke-width:0.5;" width="193" x="128" y="131.29"/><ellipse cx="166.4" cy="147.29" fill="#ADD1B2" rx="11" ry="11" style="stroke:#181818;stroke-width:1.0;"/><path d="M169.3688,152.9306 Q168.7906,153.2275 168.15,153.3681 Q167.5094,153.5244 166.8063,153.5244 Q164.3063,153.5244 162.9781,151.8837 Q161.6656,150.2275 161.6656,147.1025 Q161.6656,143.9775 162.9781,142.3212 Q164.3063,140.665 166.8063,140.665 Q167.5094,140.665 168.15,140.8212 Q168.8063,140.9775 169.3688,141.2744 L169.3688,143.9931 Q168.7438,143.415 168.15,143.1494 Q167.5563,142.8681 166.9313,142.8681 Q165.5875,142.8681 164.9,143.9462 Q164.2125,145.0087 164.2125,147.1025 Q164.2125,149.1962 164.9,150.2744 Q165.5875,151.3369 166.9313,151.3369 Q167.5563,151.3369 168.15,151.0712 Q168.7438,150.79 169.3688,150.2119 L169.3688,152.9306 Z " fill="#000000"/><text fill="#000000" font-family="sans-serif" font-size="14" lengthAdjust="spacing" textLength="109" x="185.6" y="152.1367">RobotController</text><line style="stroke:#181818;stroke-width:0.5;" x1="129" x2="320" y1="163.29" y2="163.29"/><rect fill="none" height="6" style="stroke:#C82930;stroke-width:1.0;" width="6" x="136" y="173.9384"/><text fill="#000000" font-family="sans-serif" font-size="14" lengthAdjust="spacing" textLength="167" x="148" y="180.2851">MotorControllerManager</text><rect fill="none" height="6" style="stroke:#C82930;stroke-width:1.0;" width="6" x="136" y="190.2353"/><text fill="#000000" font-family="sans-serif" font-size="14" lengthAdjust="spacing" textLength="117" x="148" y="196.582">KinematicsModel</text><line style="stroke:#181818;stroke-width:0.5;" x1="129" x2="320" y1="203.8837" y2="203.8837"/><ellipse cx="139" cy="217.5322" fill="#84BE84" rx="3" ry="3" style="stroke:#038048;stroke-width:1.0;"/><text fill="#000000" font-family="sans-serif" font-size="14" lengthAdjust="spacing" textLength="59" x="148" y="220.8789">update()</text><ellipse cx="139" cy="233.8291" fill="#84BE84" rx="3" ry="3" style="stroke:#038048;stroke-width:1.0;"/><text fill="#000000" font-family="sans-serif" font-size="14" lengthAdjust="spacing" textLength="106" x="148" y="237.1757">get_odometry()</text></g><!--class ROSPublisherSubscriber--><g id="elem_ROSPublisherSubscriber"><rect codeLine="26" fill="#F1F1F1" height="64.2969" id="ROSPublisherSubscriber" rx="2.5" ry="2.5" style="stroke:#181818;stroke-width:0.5;" width="200" x="124.5" y="7"/><ellipse cx="139.5" cy="23" fill="#ADD1B2" rx="11" ry="11" style="stroke:#181818;stroke-width:1.0;"/><path d="M142.4688,28.6406 Q141.8906,28.9375 141.25,29.0781 Q140.6094,29.2344 139.9063,29.2344 Q137.4063,29.2344 136.0781,27.5938 Q134.7656,25.9375 134.7656,22.8125 Q134.7656,19.6875 136.0781,18.0313 Q137.4063,16.375 139.9063,16.375 Q140.6094,16.375 141.25,16.5313 Q141.9063,16.6875 142.4688,16.9844 L142.4688,19.7031 Q141.8438,19.125 141.25,18.8594 Q140.6563,18.5781 140.0313,18.5781 Q138.6875,18.5781 138,19.6563 Q137.3125,20.7188 137.3125,22.8125 Q137.3125,24.9063 138,25.9844 Q138.6875,27.0469 140.0313,27.0469 Q140.6563,27.0469 141.25,26.7813 Q141.8438,26.5 142.4688,25.9219 L142.4688,28.6406 Z " fill="#000000"/><text fill="#000000" font-family="sans-serif" font-size="14" lengthAdjust="spacing" textLength="168" x="153.5" y="27.8467">ROSPublisherSubscriber</text><line style="stroke:#181818;stroke-width:0.5;" x1="125.5" x2="323.5" y1="39" y2="39"/><rect fill="none" height="6" style="stroke:#C82930;stroke-width:1.0;" width="6" x="132.5" y="49.6484"/><text fill="#000000" font-family="sans-serif" font-size="14" lengthAdjust="spacing" textLength="109" x="144.5" y="55.9951">RobotController</text><line style="stroke:#181818;stroke-width:0.5;" x1="125.5" x2="323.5" y1="63.2969" y2="63.2969"/></g><!--reverse link MotorController to SimpleMotorController--><g id="link_MotorController_SimpleMotorController"><path codeLine="30" d="M106.5,530.3 C106.5,543.51 106.5,557.31 106.5,569.13 " fill="none" id="MotorController-backto-SimpleMotorController" style="stroke:#181818;stroke-width:1.0;"/><polygon fill="none" points="99.5,530.72,106.5,510.72,113.5,530.72,99.5,530.72" style="stroke:#181818;stroke-width:1.0;"/></g><!--reverse link MotorControllerManager to MotorController--><g id="link_MotorControllerManager_MotorController"><path codeLine="31" d="M106.5,399.13 C106.5,414.62 106.5,431.04 106.5,444.72 " fill="none" id="MotorControllerManager-backto-MotorController" style="stroke:#181818;stroke-width:1.0;"/><polygon fill="none" points="106.5,386.27,102.5,392.27,106.5,398.27,110.5,392.27,106.5,386.27" style="stroke:#181818;stroke-width:1.0;"/></g><!--reverse link RobotController to MotorControllerManager--><g id="link_RobotController_MotorControllerManager"><path codeLine="32" d="M173.66,255.62 C160.97,272.28 147.77,289.6 136.47,304.44 " fill="none" id="RobotController-backto-MotorControllerManager" style="stroke:#181818;stroke-width:1.0;"/><polygon fill="none" points="181.9,245.81,175.0812,248.1561,174.6243,255.3528,181.4431,253.0066,181.9,245.81" style="stroke:#181818;stroke-width:1.0;"/></g><!--reverse link RobotController to KinematicsModel--><g id="link_RobotController_KinematicsModel"><path codeLine="33" d="M275.54,255.89 C290.47,275.49 306.1,296 318.5,312.27 " fill="none" id="RobotController-backto-KinematicsModel" style="stroke:#181818;stroke-width:1.0;"/><polygon fill="none" points="267.1,245.81,267.5569,253.0066,274.3757,255.3528,273.9188,248.1561,267.1,245.81" style="stroke:#181818;stroke-width:1.0;"/></g><!--reverse link ROSPublisherSubscriber to RobotController--><g id="link_ROSPublisherSubscriber_RobotController"><path codeLine="34" d="M224.5,85.35 C224.5,99.73 224.5,115.83 224.5,130.88 " fill="none" id="ROSPublisherSubscriber-backto-RobotController" style="stroke:#181818;stroke-width:1.0;"/><polygon fill="none" points="224.5,72.63,220.5,78.63,224.5,84.63,228.5,78.63,224.5,72.63" style="stroke:#181818;stroke-width:1.0;"/></g><!--SRC=[TP31IWGn44Jl-OeS5Pa_yEPH1iKvoX8wcMOtq9aUaXvrKV_TX3ZeXkmjq5LvLGKsIGGdsX6af4SMZW-yI6GYZFfJQNsNK4me1-FgvUPMVIjL7PCFAs7FDmJuC6z8xBoS_moDT8G5ZhkZkRqU2luNQe2enaYL3vVH7_s20SIxDFACLACx8BSH29ht4oAPj2BEwN_-5xOiRV9-nd9fA8MnhNC6v3_p-vYdufa3IZnVK9wcvysIJoUCqsQJYzxki2P1CRLptdyDGtzfTMLEpePMsbRjQFQcFMbR_Kgd8cqh_G00]--></g></svg>